<?xml version="1.0" encoding="UTF-8" standalone="no"?>
<!DOCTYPE svg PUBLIC "-//W3C//DTD SVG 1.1//EN"
 "http://www.w3.org/Graphics/SVG/1.1/DTD/svg11.dtd">
<!-- Generated by graphviz version 2.43.0 (0)
 -->
<!-- Title: G Pages: 1 -->
<svg width="1894pt" height="1052pt"
 viewBox="0.00 0.00 1894.00 1052.00" xmlns="http://www.w3.org/2000/svg" xmlns:xlink="http://www.w3.org/1999/xlink">
<g id="graph0" class="graph" transform="scale(1 1) rotate(0) translate(4 1048)">
<title>G</title>
<polygon fill="white" stroke="transparent" points="-4,4 -4,-1048 1890,-1048 1890,4 -4,4"/>
<!-- pr -->
<g id="node1" class="node">
<title>pr</title>
<ellipse fill="pink" stroke="red" cx="374" cy="-1026" rx="27" ry="18"/>
<text text-anchor="middle" x="374" y="-1022.3" font-family="Times,serif" font-size="14.00">pr</text>
</g>
<!-- gf -->
<g id="node2" class="node">
<title>gf</title>
<ellipse fill="white" stroke="blue" cx="281" cy="-954" rx="27" ry="18"/>
<text text-anchor="middle" x="281" y="-950.3" font-family="Times,serif" font-size="14.00">gf</text>
</g>
<!-- pr&#45;&gt;gf -->
<g id="edge1" class="edge">
<title>pr&#45;&gt;gf</title>
<path fill="none" stroke="red" d="M356.51,-1011.83C342.48,-1001.27 322.58,-986.3 306.74,-974.37"/>
<polygon fill="red" stroke="red" points="308.51,-971.32 298.41,-968.11 304.3,-976.92 308.51,-971.32"/>
</g>
<!-- fj -->
<g id="node3" class="node">
<title>fj</title>
<ellipse fill="white" stroke="red" cx="150" cy="-738" rx="27" ry="18"/>
<text text-anchor="middle" x="150" y="-734.3" font-family="Times,serif" font-size="14.00">fj</text>
</g>
<!-- gf&#45;&gt;fj -->
<g id="edge2" class="edge">
<title>gf&#45;&gt;fj</title>
<path fill="none" stroke="blue" d="M258.56,-943.8C238.15,-934.7 207.96,-919.36 186,-900 156.19,-873.72 145.4,-865.75 133,-828 126.2,-807.29 131.74,-782.92 138.26,-764.93"/>
<polygon fill="blue" stroke="blue" points="141.6,-765.98 142.01,-755.39 135.09,-763.42 141.6,-765.98"/>
</g>
<!-- qm -->
<g id="node4" class="node">
<title>qm</title>
<ellipse fill="pink" stroke="red" cx="226" cy="-450" rx="27" ry="18"/>
<text text-anchor="middle" x="226" y="-446.3" font-family="Times,serif" font-size="14.00">qm</text>
</g>
<!-- gf&#45;&gt;qm -->
<g id="edge3" class="edge">
<title>gf&#45;&gt;qm</title>
<path fill="none" stroke="blue" d="M254.53,-950.08C191.55,-941.51 38,-910.44 38,-811 38,-811 38,-811 38,-593 38,-517.11 136.76,-476.63 191.12,-460.1"/>
<polygon fill="blue" stroke="blue" points="192.42,-463.37 201.04,-457.2 190.45,-456.65 192.42,-463.37"/>
</g>
<!-- xn -->
<g id="node5" class="node">
<title>xn</title>
<ellipse fill="pink" stroke="blue" cx="992" cy="-810" rx="27" ry="18"/>
<text text-anchor="middle" x="992" y="-806.3" font-family="Times,serif" font-size="14.00">xn</text>
</g>
<!-- gf&#45;&gt;xn -->
<g id="edge4" class="edge">
<title>gf&#45;&gt;xn</title>
<path fill="none" stroke="blue" d="M307.8,-951.68C402.44,-946.81 720.47,-928.64 818,-900 873.35,-883.75 931.93,-849.83 965.03,-828.88"/>
<polygon fill="blue" stroke="blue" points="967.14,-831.68 973.67,-823.34 963.36,-825.79 967.14,-831.68"/>
</g>
<!-- sr -->
<g id="node6" class="node">
<title>sr</title>
<ellipse fill="pink" stroke="red" cx="393" cy="-882" rx="27" ry="18"/>
<text text-anchor="middle" x="393" y="-878.3" font-family="Times,serif" font-size="14.00">sr</text>
</g>
<!-- gf&#45;&gt;sr -->
<g id="edge5" class="edge">
<title>gf&#45;&gt;sr</title>
<path fill="none" stroke="blue" d="M297.14,-939.5C314.33,-927.74 341.54,-910.68 362.68,-898.38"/>
<polygon fill="blue" stroke="blue" points="364.68,-901.28 371.62,-893.27 361.2,-895.2 364.68,-901.28"/>
</g>
<!-- zd -->
<g id="node57" class="node">
<title>zd</title>
<ellipse fill="white" stroke="red" cx="150" cy="-666" rx="27" ry="18"/>
<text text-anchor="middle" x="150" y="-662.3" font-family="Times,serif" font-size="14.00">zd</text>
</g>
<!-- fj&#45;&gt;zd -->
<g id="edge86" class="edge">
<title>fj&#45;&gt;zd</title>
<path fill="none" stroke="red" d="M150,-719.7C150,-711.98 150,-702.71 150,-694.11"/>
<polygon fill="red" stroke="red" points="153.5,-694.1 150,-684.1 146.5,-694.1 153.5,-694.1"/>
</g>
<!-- gm -->
<g id="node11" class="node">
<title>gm</title>
<ellipse fill="pink" stroke="red" cx="283" cy="-378" rx="27" ry="18"/>
<text text-anchor="middle" x="283" y="-374.3" font-family="Times,serif" font-size="14.00">gm</text>
</g>
<!-- qm&#45;&gt;gm -->
<g id="edge8" class="edge">
<title>qm&#45;&gt;gm</title>
<path fill="none" stroke="red" d="M238.37,-433.81C245.91,-424.55 255.7,-412.52 264.19,-402.09"/>
<polygon fill="red" stroke="red" points="267.06,-404.12 270.66,-394.16 261.63,-399.7 267.06,-404.12"/>
</g>
<!-- th -->
<g id="node51" class="node">
<title>th</title>
<ellipse fill="white" stroke="blue" cx="1091" cy="-162" rx="27" ry="18"/>
<text text-anchor="middle" x="1091" y="-158.3" font-family="Times,serif" font-size="14.00">th</text>
</g>
<!-- xn&#45;&gt;th -->
<g id="edge97" class="edge">
<title>xn&#45;&gt;th</title>
<path fill="none" stroke="blue" d="M1002.03,-793.08C1017.14,-767.53 1044,-715.31 1044,-667 1044,-667 1044,-667 1044,-305 1044,-262.26 1063.43,-215.78 1077.3,-188.04"/>
<polygon fill="blue" stroke="blue" points="1080.47,-189.53 1081.94,-179.04 1074.25,-186.33 1080.47,-189.53"/>
</g>
<!-- sr&#45;&gt;gf -->
<g id="edge36" class="edge">
<title>sr&#45;&gt;gf</title>
<path fill="none" stroke="red" d="M376.78,-896.56C359.54,-908.35 332.27,-925.44 311.14,-937.72"/>
<polygon fill="red" stroke="red" points="309.16,-934.82 302.21,-942.82 312.63,-940.9 309.16,-934.82"/>
</g>
<!-- vl -->
<g id="node38" class="node">
<title>vl</title>
<ellipse fill="white" stroke="red" cx="169" cy="-810" rx="27" ry="18"/>
<text text-anchor="middle" x="169" y="-806.3" font-family="Times,serif" font-size="14.00">vl</text>
</g>
<!-- sr&#45;&gt;vl -->
<g id="edge37" class="edge">
<title>sr&#45;&gt;vl</title>
<path fill="none" stroke="red" d="M369.03,-873.51C329.05,-861.02 248.65,-835.89 202.89,-821.59"/>
<polygon fill="red" stroke="red" points="203.73,-818.19 193.14,-818.54 201.64,-824.87 203.73,-818.19"/>
</g>
<!-- ks -->
<g id="node7" class="node">
<title>ks</title>
<ellipse fill="white" stroke="red" cx="1718" cy="-522" rx="27" ry="18"/>
<text text-anchor="middle" x="1718" y="-518.3" font-family="Times,serif" font-size="14.00">ks</text>
</g>
<!-- vz -->
<g id="node8" class="node">
<title>vz</title>
<ellipse fill="white" stroke="red" cx="1699" cy="-450" rx="27" ry="18"/>
<text text-anchor="middle" x="1699" y="-446.3" font-family="Times,serif" font-size="14.00">vz</text>
</g>
<!-- ks&#45;&gt;vz -->
<g id="edge6" class="edge">
<title>ks&#45;&gt;vz</title>
<path fill="none" stroke="red" d="M1713.4,-504.05C1711.25,-496.14 1708.65,-486.54 1706.24,-477.69"/>
<polygon fill="red" stroke="red" points="1709.55,-476.52 1703.56,-467.79 1702.8,-478.36 1709.55,-476.52"/>
</g>
<!-- vc -->
<g id="node12" class="node">
<title>vc</title>
<ellipse fill="white" stroke="blue" cx="1716" cy="-306" rx="27" ry="18"/>
<text text-anchor="middle" x="1716" y="-302.3" font-family="Times,serif" font-size="14.00">vc</text>
</g>
<!-- vz&#45;&gt;vc -->
<g id="edge106" class="edge">
<title>vz&#45;&gt;vc</title>
<path fill="none" stroke="red" d="M1701.05,-431.87C1703.95,-407.67 1709.27,-363.21 1712.72,-334.39"/>
<polygon fill="red" stroke="red" points="1716.23,-334.53 1713.94,-324.19 1709.28,-333.7 1716.23,-334.53"/>
</g>
<!-- cr -->
<g id="node41" class="node">
<title>cr</title>
<ellipse fill="white" stroke="red" cx="1623" cy="-378" rx="27" ry="18"/>
<text text-anchor="middle" x="1623" y="-374.3" font-family="Times,serif" font-size="14.00">cr</text>
</g>
<!-- vz&#45;&gt;cr -->
<g id="edge105" class="edge">
<title>vz&#45;&gt;cr</title>
<path fill="none" stroke="red" d="M1683.62,-434.83C1672.8,-424.87 1658.14,-411.37 1645.95,-400.14"/>
<polygon fill="red" stroke="red" points="1648.08,-397.34 1638.36,-393.14 1643.34,-402.49 1648.08,-397.34"/>
</g>
<!-- nh -->
<g id="node9" class="node">
<title>nh</title>
<ellipse fill="white" stroke="red" cx="1813" cy="-810" rx="27" ry="18"/>
<text text-anchor="middle" x="1813" y="-806.3" font-family="Times,serif" font-size="14.00">nh</text>
</g>
<!-- hv -->
<g id="node10" class="node">
<title>hv</title>
<ellipse fill="white" stroke="red" cx="1672" cy="-738" rx="27" ry="18"/>
<text text-anchor="middle" x="1672" y="-734.3" font-family="Times,serif" font-size="14.00">hv</text>
</g>
<!-- nh&#45;&gt;hv -->
<g id="edge7" class="edge">
<title>nh&#45;&gt;hv</title>
<path fill="none" stroke="red" d="M1791.89,-798.52C1768.11,-786.72 1729.27,-767.43 1702.27,-754.03"/>
<polygon fill="red" stroke="red" points="1703.77,-750.86 1693.25,-749.55 1700.65,-757.13 1703.77,-750.86"/>
</g>
<!-- lr -->
<g id="node13" class="node">
<title>lr</title>
<ellipse fill="white" stroke="red" cx="1672" cy="-666" rx="27" ry="18"/>
<text text-anchor="middle" x="1672" y="-662.3" font-family="Times,serif" font-size="14.00">lr</text>
</g>
<!-- hv&#45;&gt;lr -->
<g id="edge42" class="edge">
<title>hv&#45;&gt;lr</title>
<path fill="none" stroke="red" d="M1672,-719.7C1672,-711.98 1672,-702.71 1672,-694.11"/>
<polygon fill="red" stroke="red" points="1675.5,-694.1 1672,-684.1 1668.5,-694.1 1675.5,-694.1"/>
</g>
<!-- gm&#45;&gt;gf -->
<g id="edge82" class="edge">
<title>gm&#45;&gt;gf</title>
<path fill="none" stroke="red" d="M286.36,-395.97C291.31,-422.52 300,-475.56 300,-521 300,-811 300,-811 300,-811 300,-851.36 292.37,-897.61 286.78,-926.06"/>
<polygon fill="red" stroke="red" points="283.31,-925.55 284.75,-936.05 290.17,-926.94 283.31,-925.55"/>
</g>
<!-- tj -->
<g id="node53" class="node">
<title>tj</title>
<ellipse fill="white" stroke="red" cx="310" cy="-306" rx="27" ry="18"/>
<text text-anchor="middle" x="310" y="-302.3" font-family="Times,serif" font-size="14.00">tj</text>
</g>
<!-- gm&#45;&gt;tj -->
<g id="edge81" class="edge">
<title>gm&#45;&gt;tj</title>
<path fill="none" stroke="red" d="M289.4,-360.41C292.51,-352.34 296.33,-342.43 299.83,-333.35"/>
<polygon fill="red" stroke="red" points="303.13,-334.55 303.46,-323.96 296.6,-332.03 303.13,-334.55"/>
</g>
<!-- vc&#45;&gt;ks -->
<g id="edge11" class="edge">
<title>vc&#45;&gt;ks</title>
<path fill="none" stroke="blue" d="M1721.04,-323.98C1729.1,-353.4 1743.18,-415.72 1735,-468 1733.62,-476.82 1731.02,-486.18 1728.26,-494.54"/>
<polygon fill="blue" stroke="blue" points="1724.9,-493.55 1724.89,-504.14 1731.51,-495.87 1724.9,-493.55"/>
</g>
<!-- vc&#45;&gt;nh -->
<g id="edge14" class="edge">
<title>vc&#45;&gt;nh</title>
<path fill="none" stroke="blue" d="M1735.34,-318.81C1767.86,-340.33 1830,-389.25 1830,-449 1830,-667 1830,-667 1830,-667 1830,-707.29 1823.17,-753.56 1818.17,-782.04"/>
<polygon fill="blue" stroke="blue" points="1814.7,-781.57 1816.36,-792.03 1821.58,-782.81 1814.7,-781.57"/>
</g>
<!-- vc&#45;&gt;hv -->
<g id="edge15" class="edge">
<title>vc&#45;&gt;hv</title>
<path fill="none" stroke="blue" d="M1689.73,-310.46C1660.2,-315.79 1612.99,-328.87 1587,-360 1561.08,-391.05 1568,-408.55 1568,-449 1568,-595 1568,-595 1568,-595 1568,-647.51 1614.86,-693.51 1645.67,-718.08"/>
<polygon fill="blue" stroke="blue" points="1643.83,-721.08 1653.88,-724.43 1648.11,-715.54 1643.83,-721.08"/>
</g>
<!-- vc&#45;&gt;lr -->
<g id="edge9" class="edge">
<title>vc&#45;&gt;lr</title>
<path fill="none" stroke="blue" d="M1706.56,-323.29C1693.72,-346.51 1671.36,-390.88 1663,-432 1648.1,-505.33 1659.41,-594.23 1666.85,-637.99"/>
<polygon fill="blue" stroke="blue" points="1663.45,-638.87 1668.63,-648.11 1670.34,-637.65 1663.45,-638.87"/>
</g>
<!-- hd -->
<g id="node14" class="node">
<title>hd</title>
<ellipse fill="white" stroke="red" cx="1845" cy="-882" rx="27" ry="18"/>
<text text-anchor="middle" x="1845" y="-878.3" font-family="Times,serif" font-size="14.00">hd</text>
</g>
<!-- vc&#45;&gt;hd -->
<g id="edge10" class="edge">
<title>vc&#45;&gt;hd</title>
<path fill="none" stroke="blue" d="M1740.45,-313.71C1787.73,-329.72 1886,-374.46 1886,-449 1886,-739 1886,-739 1886,-739 1886,-780.86 1872.6,-828.01 1860.7,-856.07"/>
<polygon fill="blue" stroke="blue" points="1857.37,-854.95 1856.42,-865.5 1863.74,-857.84 1857.37,-854.95"/>
</g>
<!-- qn -->
<g id="node15" class="node">
<title>qn</title>
<ellipse fill="pink" stroke="blue" cx="1464" cy="-234" rx="27" ry="18"/>
<text text-anchor="middle" x="1464" y="-230.3" font-family="Times,serif" font-size="14.00">qn</text>
</g>
<!-- vc&#45;&gt;qn -->
<g id="edge12" class="edge">
<title>vc&#45;&gt;qn</title>
<path fill="none" stroke="blue" d="M1691.38,-298.16C1646.21,-285.61 1550.03,-258.9 1498.42,-244.56"/>
<polygon fill="blue" stroke="blue" points="1499.29,-241.17 1488.72,-241.87 1497.42,-247.92 1499.29,-241.17"/>
</g>
<!-- gx -->
<g id="node16" class="node">
<title>gx</title>
<ellipse fill="white" stroke="red" cx="1623" cy="-234" rx="27" ry="18"/>
<text text-anchor="middle" x="1623" y="-230.3" font-family="Times,serif" font-size="14.00">gx</text>
</g>
<!-- vc&#45;&gt;gx -->
<g id="edge13" class="edge">
<title>vc&#45;&gt;gx</title>
<path fill="none" stroke="blue" d="M1698.51,-291.83C1684.48,-281.27 1664.58,-266.3 1648.74,-254.37"/>
<polygon fill="blue" stroke="blue" points="1650.51,-251.32 1640.41,-248.11 1646.3,-256.92 1650.51,-251.32"/>
</g>
<!-- sb -->
<g id="node58" class="node">
<title>sb</title>
<ellipse fill="white" stroke="red" cx="1718" cy="-594" rx="27" ry="18"/>
<text text-anchor="middle" x="1718" y="-590.3" font-family="Times,serif" font-size="14.00">sb</text>
</g>
<!-- lr&#45;&gt;sb -->
<g id="edge87" class="edge">
<title>lr&#45;&gt;sb</title>
<path fill="none" stroke="red" d="M1682.44,-649.12C1688.2,-640.34 1695.48,-629.26 1701.96,-619.42"/>
<polygon fill="red" stroke="red" points="1705.04,-621.1 1707.6,-610.82 1699.19,-617.26 1705.04,-621.1"/>
</g>
<!-- hd&#45;&gt;nh -->
<g id="edge27" class="edge">
<title>hd&#45;&gt;nh</title>
<path fill="none" stroke="red" d="M1837.42,-864.41C1833.63,-856.13 1828.97,-845.92 1824.73,-836.66"/>
<polygon fill="red" stroke="red" points="1827.87,-835.11 1820.53,-827.47 1821.5,-838.02 1827.87,-835.11"/>
</g>
<!-- hd&#45;&gt;vc -->
<g id="edge26" class="edge">
<title>hd&#45;&gt;vc</title>
<path fill="none" stroke="red" d="M1845.71,-863.79C1851.83,-837.36 1868,-784.99 1868,-739 1868,-739 1868,-739 1868,-449 1868,-383.38 1791.83,-340.85 1747.2,-320.69"/>
<polygon fill="red" stroke="red" points="1748.5,-317.43 1737.93,-316.61 1745.68,-323.84 1748.5,-317.43"/>
</g>
<!-- qn&#45;&gt;th -->
<g id="edge66" class="edge">
<title>qn&#45;&gt;th</title>
<path fill="none" stroke="blue" d="M1438.36,-228.19C1373.28,-215.98 1201.55,-183.75 1126.71,-169.7"/>
<polygon fill="blue" stroke="blue" points="1127.29,-166.25 1116.82,-167.85 1126,-173.13 1127.29,-166.25"/>
</g>
<!-- cd -->
<g id="node24" class="node">
<title>cd</title>
<ellipse fill="white" stroke="red" cx="1661" cy="-162" rx="27" ry="18"/>
<text text-anchor="middle" x="1661" y="-158.3" font-family="Times,serif" font-size="14.00">cd</text>
</g>
<!-- gx&#45;&gt;cd -->
<g id="edge63" class="edge">
<title>gx&#45;&gt;cd</title>
<path fill="none" stroke="red" d="M1631.81,-216.76C1636.42,-208.28 1642.16,-197.71 1647.32,-188.2"/>
<polygon fill="red" stroke="red" points="1650.54,-189.61 1652.23,-179.15 1644.39,-186.27 1650.54,-189.61"/>
</g>
<!-- pf -->
<g id="node17" class="node">
<title>pf</title>
<ellipse fill="white" stroke="red" cx="1182" cy="-18" rx="27" ry="18"/>
<text text-anchor="middle" x="1182" y="-14.3" font-family="Times,serif" font-size="14.00">pf</text>
</g>
<!-- qx -->
<g id="node18" class="node">
<title>qx</title>
<ellipse fill="white" stroke="blue" cx="1306" cy="-738" rx="27" ry="18"/>
<text text-anchor="middle" x="1306" y="-734.3" font-family="Times,serif" font-size="14.00">qx</text>
</g>
<!-- pf&#45;&gt;qx -->
<g id="edge16" class="edge">
<title>pf&#45;&gt;qx</title>
<path fill="none" stroke="red" d="M1176.47,-35.84C1168.31,-62.21 1154,-115.02 1154,-161 1154,-595 1154,-595 1154,-595 1154,-640.37 1171.4,-652.45 1204,-684 1223.52,-702.9 1251.13,-716.68 1272.7,-725.45"/>
<polygon fill="red" stroke="red" points="1271.55,-728.76 1282.14,-729.13 1274.09,-722.24 1271.55,-728.76"/>
</g>
<!-- cb -->
<g id="node21" class="node">
<title>cb</title>
<ellipse fill="pink" stroke="red" cx="1475" cy="-666" rx="27" ry="18"/>
<text text-anchor="middle" x="1475" y="-662.3" font-family="Times,serif" font-size="14.00">cb</text>
</g>
<!-- qx&#45;&gt;cb -->
<g id="edge52" class="edge">
<title>qx&#45;&gt;cb</title>
<path fill="none" stroke="blue" d="M1328.66,-727.62C1354.24,-717.03 1397.11,-699.28 1434,-684 1436.9,-682.8 1439.91,-681.55 1442.92,-680.3"/>
<polygon fill="blue" stroke="blue" points="1444.55,-683.42 1452.44,-676.35 1441.87,-676.95 1444.55,-683.42"/>
</g>
<!-- vm -->
<g id="node22" class="node">
<title>vm</title>
<ellipse fill="white" stroke="red" cx="1304" cy="-234" rx="27" ry="18"/>
<text text-anchor="middle" x="1304" y="-230.3" font-family="Times,serif" font-size="14.00">vm</text>
</g>
<!-- qx&#45;&gt;vm -->
<g id="edge56" class="edge">
<title>qx&#45;&gt;vm</title>
<path fill="none" stroke="blue" d="M1332.29,-733.66C1381.86,-726.82 1486.39,-709.68 1511,-684 1538.98,-654.8 1530,-635.45 1530,-595 1530,-595 1530,-595 1530,-377 1530,-288.55 1404.36,-253.06 1340.44,-240.72"/>
<polygon fill="blue" stroke="blue" points="1340.84,-237.24 1330.37,-238.87 1339.57,-244.12 1340.84,-237.24"/>
</g>
<!-- cv -->
<g id="node47" class="node">
<title>cv</title>
<ellipse fill="pink" stroke="red" cx="1342" cy="-450" rx="27" ry="18"/>
<text text-anchor="middle" x="1342" y="-446.3" font-family="Times,serif" font-size="14.00">cv</text>
</g>
<!-- qx&#45;&gt;cv -->
<g id="edge53" class="edge">
<title>qx&#45;&gt;cv</title>
<path fill="none" stroke="blue" d="M1306.06,-719.86C1306.49,-681.05 1309.2,-583.62 1325,-504 1326.74,-495.24 1329.44,-485.9 1332.18,-477.53"/>
<polygon fill="blue" stroke="blue" points="1335.54,-478.52 1335.48,-467.92 1328.92,-476.25 1335.54,-478.52"/>
</g>
<!-- bx -->
<g id="node48" class="node">
<title>bx</title>
<ellipse fill="white" stroke="red" cx="1306" cy="-882" rx="27" ry="18"/>
<text text-anchor="middle" x="1306" y="-878.3" font-family="Times,serif" font-size="14.00">bx</text>
</g>
<!-- qx&#45;&gt;bx -->
<g id="edge54" class="edge">
<title>qx&#45;&gt;bx</title>
<path fill="none" stroke="blue" d="M1310.55,-755.82C1313.15,-780.05 1313.44,-825 1311.44,-853.93"/>
<polygon fill="blue" stroke="blue" points="1307.93,-853.89 1310.55,-864.15 1314.9,-854.49 1307.93,-853.89"/>
</g>
<!-- xz -->
<g id="node49" class="node">
<title>xz</title>
<ellipse fill="white" stroke="red" cx="1342" cy="-378" rx="27" ry="18"/>
<text text-anchor="middle" x="1342" y="-374.3" font-family="Times,serif" font-size="14.00">xz</text>
</g>
<!-- qx&#45;&gt;xz -->
<g id="edge55" class="edge">
<title>qx&#45;&gt;xz</title>
<path fill="none" stroke="blue" d="M1326.31,-725.97C1357.83,-707.42 1416.81,-666.58 1435,-612 1461.22,-533.33 1397.01,-442.81 1362.37,-401.57"/>
<polygon fill="blue" stroke="blue" points="1364.84,-399.08 1355.67,-393.77 1359.53,-403.64 1364.84,-399.08"/>
</g>
<!-- zl -->
<g id="node50" class="node">
<title>zl</title>
<ellipse fill="pink" stroke="blue" cx="1099" cy="-522" rx="27" ry="18"/>
<text text-anchor="middle" x="1099" y="-518.3" font-family="Times,serif" font-size="14.00">zl</text>
</g>
<!-- qx&#45;&gt;zl -->
<g id="edge57" class="edge">
<title>qx&#45;&gt;zl</title>
<path fill="none" stroke="blue" d="M1279.13,-736.13C1242.39,-733.45 1176.82,-723.09 1140,-684 1105.41,-647.28 1098.95,-585.58 1098.32,-550.18"/>
<polygon fill="blue" stroke="blue" points="1101.82,-550.08 1098.29,-540.09 1094.82,-550.1 1101.82,-550.08"/>
</g>
<!-- rx -->
<g id="node19" class="node">
<title>rx</title>
<ellipse fill="white" stroke="black" cx="1091" cy="-90" rx="27" ry="18"/>
<text text-anchor="middle" x="1091" y="-86.3" font-family="Times,serif" font-size="14.00">rx</text>
</g>
<!-- qp -->
<g id="node20" class="node">
<title>qp</title>
<ellipse fill="pink" stroke="red" cx="1370" cy="-810" rx="27" ry="18"/>
<text text-anchor="middle" x="1370" y="-806.3" font-family="Times,serif" font-size="14.00">qp</text>
</g>
<!-- qp&#45;&gt;qx -->
<g id="edge18" class="edge">
<title>qp&#45;&gt;qx</title>
<path fill="none" stroke="red" d="M1356.43,-794.15C1347.69,-784.6 1336.17,-771.99 1326.34,-761.25"/>
<polygon fill="red" stroke="red" points="1328.88,-758.84 1319.55,-753.82 1323.72,-763.57 1328.88,-758.84"/>
</g>
<!-- qp&#45;&gt;cb -->
<g id="edge17" class="edge">
<title>qp&#45;&gt;cb</title>
<path fill="none" stroke="red" d="M1381.44,-793.53C1399.74,-768.78 1435.75,-720.08 1457.37,-690.85"/>
<polygon fill="red" stroke="red" points="1460.45,-692.57 1463.58,-682.45 1454.82,-688.41 1460.45,-692.57"/>
</g>
<!-- kt -->
<g id="node35" class="node">
<title>kt</title>
<ellipse fill="white" stroke="red" cx="1399" cy="-594" rx="27" ry="18"/>
<text text-anchor="middle" x="1399" y="-590.3" font-family="Times,serif" font-size="14.00">kt</text>
</g>
<!-- cb&#45;&gt;kt -->
<g id="edge35" class="edge">
<title>cb&#45;&gt;kt</title>
<path fill="none" stroke="red" d="M1459.62,-650.83C1448.8,-640.87 1434.14,-627.37 1421.95,-616.14"/>
<polygon fill="red" stroke="red" points="1424.08,-613.34 1414.36,-609.14 1419.34,-618.49 1424.08,-613.34"/>
</g>
<!-- cl -->
<g id="node23" class="node">
<title>cl</title>
<ellipse fill="white" stroke="red" cx="1247" cy="-162" rx="27" ry="18"/>
<text text-anchor="middle" x="1247" y="-158.3" font-family="Times,serif" font-size="14.00">cl</text>
</g>
<!-- vm&#45;&gt;cl -->
<g id="edge19" class="edge">
<title>vm&#45;&gt;cl</title>
<path fill="none" stroke="red" d="M1291.63,-217.81C1284.09,-208.55 1274.3,-196.52 1265.81,-186.09"/>
<polygon fill="red" stroke="red" points="1268.37,-183.7 1259.34,-178.16 1262.94,-188.12 1268.37,-183.7"/>
</g>
<!-- cl&#45;&gt;qx -->
<g id="edge33" class="edge">
<title>cl&#45;&gt;qx</title>
<path fill="none" stroke="red" d="M1243.64,-179.97C1238.69,-206.52 1230,-259.56 1230,-305 1230,-595 1230,-595 1230,-595 1230,-641.88 1262.6,-688.26 1285.09,-714.69"/>
<polygon fill="red" stroke="red" points="1282.48,-717.02 1291.7,-722.23 1287.74,-712.4 1282.48,-717.02"/>
</g>
<!-- bf -->
<g id="node37" class="node">
<title>bf</title>
<ellipse fill="white" stroke="red" cx="1209" cy="-90" rx="27" ry="18"/>
<text text-anchor="middle" x="1209" y="-86.3" font-family="Times,serif" font-size="14.00">bf</text>
</g>
<!-- cl&#45;&gt;bf -->
<g id="edge34" class="edge">
<title>cl&#45;&gt;bf</title>
<path fill="none" stroke="red" d="M1238.19,-144.76C1233.58,-136.28 1227.84,-125.71 1222.68,-116.2"/>
<polygon fill="red" stroke="red" points="1225.61,-114.27 1217.77,-107.15 1219.46,-117.61 1225.61,-114.27"/>
</g>
<!-- cd&#45;&gt;vc -->
<g id="edge21" class="edge">
<title>cd&#45;&gt;vc</title>
<path fill="none" stroke="red" d="M1667.55,-179.9C1677.05,-204.44 1694.75,-250.15 1705.93,-278.99"/>
<polygon fill="red" stroke="red" points="1702.71,-280.37 1709.58,-288.43 1709.24,-277.84 1702.71,-280.37"/>
</g>
<!-- pm -->
<g id="node25" class="node">
<title>pm</title>
<ellipse fill="white" stroke="red" cx="1699" cy="-90" rx="27" ry="18"/>
<text text-anchor="middle" x="1699" y="-86.3" font-family="Times,serif" font-size="14.00">pm</text>
</g>
<!-- cd&#45;&gt;pm -->
<g id="edge20" class="edge">
<title>cd&#45;&gt;pm</title>
<path fill="none" stroke="red" d="M1669.81,-144.76C1674.42,-136.28 1680.16,-125.71 1685.32,-116.2"/>
<polygon fill="red" stroke="red" points="1688.54,-117.61 1690.23,-107.15 1682.39,-114.27 1688.54,-117.61"/>
</g>
<!-- pm&#45;&gt;vc -->
<g id="edge103" class="edge">
<title>pm&#45;&gt;vc</title>
<path fill="none" stroke="red" d="M1700.37,-108.23C1703.32,-145.32 1710.28,-232.98 1713.83,-277.71"/>
<polygon fill="red" stroke="red" points="1710.36,-278.16 1714.64,-287.85 1717.33,-277.6 1710.36,-278.16"/>
</g>
<!-- qk -->
<g id="node59" class="node">
<title>qk</title>
<ellipse fill="white" stroke="red" cx="1726" cy="-18" rx="27" ry="18"/>
<text text-anchor="middle" x="1726" y="-14.3" font-family="Times,serif" font-size="14.00">qk</text>
</g>
<!-- pm&#45;&gt;qk -->
<g id="edge104" class="edge">
<title>pm&#45;&gt;qk</title>
<path fill="none" stroke="red" d="M1705.4,-72.41C1708.51,-64.34 1712.33,-54.43 1715.83,-45.35"/>
<polygon fill="red" stroke="red" points="1719.13,-46.55 1719.46,-35.96 1712.6,-44.03 1719.13,-46.55"/>
</g>
<!-- ln -->
<g id="node26" class="node">
<title>ln</title>
<ellipse fill="pink" stroke="red" cx="207" cy="-594" rx="27" ry="18"/>
<text text-anchor="middle" x="207" y="-590.3" font-family="Times,serif" font-size="14.00">ln</text>
</g>
<!-- ln&#45;&gt;gf -->
<g id="edge22" class="edge">
<title>ln&#45;&gt;gf</title>
<path fill="none" stroke="red" d="M210.36,-611.97C215.31,-638.52 224,-691.56 224,-737 224,-811 224,-811 224,-811 224,-851.97 231.66,-862.43 248,-900 252.3,-909.89 258.24,-920.09 263.89,-928.87"/>
<polygon fill="red" stroke="red" points="261.15,-931.06 269.61,-937.44 266.97,-927.18 261.15,-931.06"/>
</g>
<!-- qq -->
<g id="node27" class="node">
<title>qq</title>
<ellipse fill="white" stroke="red" cx="226" cy="-522" rx="27" ry="18"/>
<text text-anchor="middle" x="226" y="-518.3" font-family="Times,serif" font-size="14.00">qq</text>
</g>
<!-- ln&#45;&gt;qq -->
<g id="edge23" class="edge">
<title>ln&#45;&gt;qq</title>
<path fill="none" stroke="red" d="M211.6,-576.05C213.75,-568.14 216.35,-558.54 218.76,-549.69"/>
<polygon fill="red" stroke="red" points="222.2,-550.36 221.44,-539.79 215.45,-548.52 222.2,-550.36"/>
</g>
<!-- qq&#45;&gt;gf -->
<g id="edge84" class="edge">
<title>qq&#45;&gt;gf</title>
<path fill="none" stroke="red" d="M233.11,-539.7C243.6,-565.89 262,-618.46 262,-665 262,-811 262,-811 262,-811 262,-851.36 269.63,-897.61 275.22,-926.06"/>
<polygon fill="red" stroke="red" points="271.83,-926.94 277.25,-936.05 278.69,-925.55 271.83,-926.94"/>
</g>
<!-- qq&#45;&gt;qm -->
<g id="edge83" class="edge">
<title>qq&#45;&gt;qm</title>
<path fill="none" stroke="red" d="M226,-503.7C226,-495.98 226,-486.71 226,-478.11"/>
<polygon fill="red" stroke="red" points="229.5,-478.1 226,-468.1 222.5,-478.1 229.5,-478.1"/>
</g>
<!-- lc -->
<g id="node28" class="node">
<title>lc</title>
<ellipse fill="pink" stroke="red" cx="310" cy="-234" rx="27" ry="18"/>
<text text-anchor="middle" x="310" y="-230.3" font-family="Times,serif" font-size="14.00">lc</text>
</g>
<!-- lc&#45;&gt;gf -->
<g id="edge24" class="edge">
<title>lc&#45;&gt;gf</title>
<path fill="none" stroke="red" d="M283.03,-235.08C207.61,-236.85 0,-252.98 0,-377 0,-811 0,-811 0,-811 0,-857.5 17.26,-872.84 55,-900 111.87,-940.93 195.73,-950.71 243.69,-952.77"/>
<polygon fill="red" stroke="red" points="243.81,-956.28 253.93,-953.12 244.05,-949.28 243.81,-956.28"/>
</g>
<!-- fn -->
<g id="node29" class="node">
<title>fn</title>
<ellipse fill="pink" stroke="red" cx="448" cy="-162" rx="27" ry="18"/>
<text text-anchor="middle" x="448" y="-158.3" font-family="Times,serif" font-size="14.00">fn</text>
</g>
<!-- lc&#45;&gt;fn -->
<g id="edge25" class="edge">
<title>lc&#45;&gt;fn</title>
<path fill="none" stroke="red" d="M330.96,-222.37C354.06,-210.65 391.42,-191.7 417.71,-178.37"/>
<polygon fill="red" stroke="red" points="419.51,-181.38 426.84,-173.73 416.34,-175.13 419.51,-181.38"/>
</g>
<!-- fn&#45;&gt;pr -->
<g id="edge79" class="edge">
<title>fn&#45;&gt;pr</title>
<path fill="none" stroke="red" d="M455.51,-179.66C466.58,-205.8 486,-258.3 486,-305 486,-883 486,-883 486,-883 486,-937.47 434.56,-983.33 401.4,-1007.23"/>
<polygon fill="red" stroke="red" points="399.19,-1004.51 393,-1013.11 403.2,-1010.25 399.19,-1004.51"/>
</g>
<!-- fn&#45;&gt;gf -->
<g id="edge80" class="edge">
<title>fn&#45;&gt;gf</title>
<path fill="none" stroke="red" d="M448,-180.05C448,-206.71 448,-259.89 448,-305 448,-811 448,-811 448,-811 448,-851.45 455.63,-869.56 429,-900 400.83,-932.21 351.65,-944.84 317.77,-949.8"/>
<polygon fill="red" stroke="red" points="317.24,-946.34 307.78,-951.11 318.15,-953.28 317.24,-946.34"/>
</g>
<!-- jz -->
<g id="node30" class="node">
<title>jz</title>
<ellipse fill="pink" stroke="red" cx="860" cy="-162" rx="27" ry="18"/>
<text text-anchor="middle" x="860" y="-158.3" font-family="Times,serif" font-size="14.00">jz</text>
</g>
<!-- qj -->
<g id="node31" class="node">
<title>qj</title>
<ellipse fill="pink" stroke="red" cx="651" cy="-90" rx="27" ry="18"/>
<text text-anchor="middle" x="651" y="-86.3" font-family="Times,serif" font-size="14.00">qj</text>
</g>
<!-- jz&#45;&gt;qj -->
<g id="edge28" class="edge">
<title>jz&#45;&gt;qj</title>
<path fill="none" stroke="red" d="M836.43,-153.11C799.27,-140.66 726.93,-116.43 684.42,-102.19"/>
<polygon fill="red" stroke="red" points="685.4,-98.83 674.8,-98.97 683.17,-105.47 685.4,-98.83"/>
</g>
<!-- db -->
<g id="node32" class="node">
<title>db</title>
<ellipse fill="white" stroke="blue" cx="782" cy="-738" rx="27" ry="18"/>
<text text-anchor="middle" x="782" y="-734.3" font-family="Times,serif" font-size="14.00">db</text>
</g>
<!-- jz&#45;&gt;db -->
<g id="edge29" class="edge">
<title>jz&#45;&gt;db</title>
<path fill="none" stroke="red" d="M873.92,-177.84C895.35,-202.32 934,-253.57 934,-305 934,-595 934,-595 934,-595 934,-660.1 858.63,-703.93 814.03,-724.16"/>
<polygon fill="red" stroke="red" points="812.51,-721.01 804.76,-728.24 815.32,-727.42 812.51,-721.01"/>
</g>
<!-- qj&#45;&gt;db -->
<g id="edge102" class="edge">
<title>qj&#45;&gt;db</title>
<path fill="none" stroke="red" d="M647.64,-107.97C642.69,-134.52 634,-187.56 634,-233 634,-595 634,-595 634,-595 634,-658.89 706.71,-702.98 750.2,-723.64"/>
<polygon fill="red" stroke="red" points="748.97,-726.93 759.52,-727.92 751.9,-720.56 748.97,-726.93"/>
</g>
<!-- xm -->
<g id="node56" class="node">
<title>xm</title>
<ellipse fill="pink" stroke="red" cx="624" cy="-18" rx="27" ry="18"/>
<text text-anchor="middle" x="624" y="-14.3" font-family="Times,serif" font-size="14.00">xm</text>
</g>
<!-- qj&#45;&gt;xm -->
<g id="edge101" class="edge">
<title>qj&#45;&gt;xm</title>
<path fill="none" stroke="red" d="M644.6,-72.41C641.49,-64.34 637.67,-54.43 634.17,-45.35"/>
<polygon fill="red" stroke="red" points="637.4,-44.03 630.54,-35.96 630.87,-46.55 637.4,-44.03"/>
</g>
<!-- ff -->
<g id="node33" class="node">
<title>ff</title>
<ellipse fill="white" stroke="red" cx="765" cy="-450" rx="27" ry="18"/>
<text text-anchor="middle" x="765" y="-446.3" font-family="Times,serif" font-size="14.00">ff</text>
</g>
<!-- db&#45;&gt;ff -->
<g id="edge44" class="edge">
<title>db&#45;&gt;ff</title>
<path fill="none" stroke="blue" d="M780.99,-719.97C778.15,-672.29 770.12,-537.18 766.64,-478.63"/>
<polygon fill="blue" stroke="blue" points="770.12,-478.08 766.03,-468.31 763.13,-478.5 770.12,-478.08"/>
</g>
<!-- ch -->
<g id="node39" class="node">
<title>ch</title>
<ellipse fill="pink" stroke="red" cx="782" cy="-882" rx="27" ry="18"/>
<text text-anchor="middle" x="782" y="-878.3" font-family="Times,serif" font-size="14.00">ch</text>
</g>
<!-- db&#45;&gt;ch -->
<g id="edge47" class="edge">
<title>db&#45;&gt;ch</title>
<path fill="none" stroke="blue" d="M786.55,-755.82C789.15,-780.05 789.44,-825 787.44,-853.93"/>
<polygon fill="blue" stroke="blue" points="783.93,-853.89 786.55,-864.15 790.9,-854.49 783.93,-853.89"/>
</g>
<!-- ds -->
<g id="node42" class="node">
<title>ds</title>
<ellipse fill="white" stroke="red" cx="541" cy="-666" rx="27" ry="18"/>
<text text-anchor="middle" x="541" y="-662.3" font-family="Times,serif" font-size="14.00">ds</text>
</g>
<!-- db&#45;&gt;ds -->
<g id="edge45" class="edge">
<title>db&#45;&gt;ds</title>
<path fill="none" stroke="blue" d="M756.74,-731.45C718.48,-722.8 643.76,-704.88 582,-684 578.86,-682.94 575.62,-681.75 572.4,-680.52"/>
<polygon fill="blue" stroke="blue" points="573.51,-677.19 562.92,-676.73 570.91,-683.69 573.51,-677.19"/>
</g>
<!-- cc -->
<g id="node43" class="node">
<title>cc</title>
<ellipse fill="white" stroke="red" cx="689" cy="-594" rx="27" ry="18"/>
<text text-anchor="middle" x="689" y="-590.3" font-family="Times,serif" font-size="14.00">cc</text>
</g>
<!-- db&#45;&gt;cc -->
<g id="edge48" class="edge">
<title>db&#45;&gt;cc</title>
<path fill="none" stroke="blue" d="M765.96,-723.37C754.84,-713.31 740.25,-698.86 730,-684 716.47,-664.39 705.47,-639.59 698.29,-621.16"/>
<polygon fill="blue" stroke="blue" points="701.5,-619.76 694.69,-611.65 694.95,-622.24 701.5,-619.76"/>
</g>
<!-- sf -->
<g id="node44" class="node">
<title>sf</title>
<ellipse fill="pink" stroke="red" cx="841" cy="-306" rx="27" ry="18"/>
<text text-anchor="middle" x="841" y="-302.3" font-family="Times,serif" font-size="14.00">sf</text>
</g>
<!-- db&#45;&gt;sf -->
<g id="edge46" class="edge">
<title>db&#45;&gt;sf</title>
<path fill="none" stroke="blue" d="M796.3,-722.23C818.31,-697.85 858,-646.73 858,-595 858,-595 858,-595 858,-449 858,-408.71 851.17,-362.44 846.17,-333.96"/>
<polygon fill="blue" stroke="blue" points="849.58,-333.19 844.36,-323.97 842.7,-334.43 849.58,-333.19"/>
</g>
<!-- xf -->
<g id="node45" class="node">
<title>xf</title>
<ellipse fill="pink" stroke="blue" cx="989" cy="-594" rx="27" ry="18"/>
<text text-anchor="middle" x="989" y="-590.3" font-family="Times,serif" font-size="14.00">xf</text>
</g>
<!-- db&#45;&gt;xf -->
<g id="edge49" class="edge">
<title>db&#45;&gt;xf</title>
<path fill="none" stroke="blue" d="M808.82,-735.04C844.61,-731.1 908.11,-719.27 948,-684 966.45,-667.69 977.14,-641.36 982.95,-621.57"/>
<polygon fill="blue" stroke="blue" points="986.34,-622.46 985.56,-611.9 979.58,-620.64 986.34,-622.46"/>
</g>
<!-- pl -->
<g id="node34" class="node">
<title>pl</title>
<ellipse fill="pink" stroke="red" cx="803" cy="-378" rx="27" ry="18"/>
<text text-anchor="middle" x="803" y="-374.3" font-family="Times,serif" font-size="14.00">pl</text>
</g>
<!-- ff&#45;&gt;pl -->
<g id="edge30" class="edge">
<title>ff&#45;&gt;pl</title>
<path fill="none" stroke="red" d="M773.81,-432.76C778.42,-424.28 784.16,-413.71 789.32,-404.2"/>
<polygon fill="red" stroke="red" points="792.54,-405.61 794.23,-395.15 786.39,-402.27 792.54,-405.61"/>
</g>
<!-- pl&#45;&gt;db -->
<g id="edge96" class="edge">
<title>pl&#45;&gt;db</title>
<path fill="none" stroke="red" d="M806.36,-395.97C811.31,-422.52 820,-475.56 820,-521 820,-595 820,-595 820,-595 820,-636.59 804.6,-682.78 793.4,-710.86"/>
<polygon fill="red" stroke="red" points="790.07,-709.76 789.51,-720.34 796.55,-712.42 790.07,-709.76"/>
</g>
<!-- pl&#45;&gt;sf -->
<g id="edge95" class="edge">
<title>pl&#45;&gt;sf</title>
<path fill="none" stroke="red" d="M811.81,-360.76C816.42,-352.28 822.16,-341.71 827.32,-332.2"/>
<polygon fill="red" stroke="red" points="830.54,-333.61 832.23,-323.15 824.39,-330.27 830.54,-333.61"/>
</g>
<!-- kt&#45;&gt;qx -->
<g id="edge31" class="edge">
<title>kt&#45;&gt;qx</title>
<path fill="none" stroke="red" d="M1393.31,-611.65C1386.51,-630.23 1374.03,-660.75 1358,-684 1349.92,-695.72 1339.12,-707.2 1329.47,-716.45"/>
<polygon fill="red" stroke="red" points="1326.98,-713.99 1322.04,-723.37 1331.75,-719.12 1326.98,-713.99"/>
</g>
<!-- rz -->
<g id="node36" class="node">
<title>rz</title>
<ellipse fill="pink" stroke="red" cx="1361" cy="-522" rx="27" ry="18"/>
<text text-anchor="middle" x="1361" y="-518.3" font-family="Times,serif" font-size="14.00">rz</text>
</g>
<!-- kt&#45;&gt;rz -->
<g id="edge32" class="edge">
<title>kt&#45;&gt;rz</title>
<path fill="none" stroke="red" d="M1390.19,-576.76C1385.58,-568.28 1379.84,-557.71 1374.68,-548.2"/>
<polygon fill="red" stroke="red" points="1377.61,-546.27 1369.77,-539.15 1371.46,-549.61 1377.61,-546.27"/>
</g>
<!-- rz&#45;&gt;qx -->
<g id="edge107" class="edge">
<title>rz&#45;&gt;qx</title>
<path fill="none" stroke="red" d="M1356.74,-539.93C1349.34,-569.29 1333.62,-631.51 1320,-684 1317.82,-692.42 1315.41,-701.58 1313.21,-709.89"/>
<polygon fill="red" stroke="red" points="1309.76,-709.26 1310.58,-719.82 1316.52,-711.05 1309.76,-709.26"/>
</g>
<!-- rz&#45;&gt;cv -->
<g id="edge108" class="edge">
<title>rz&#45;&gt;cv</title>
<path fill="none" stroke="red" d="M1356.4,-504.05C1354.25,-496.14 1351.65,-486.54 1349.24,-477.69"/>
<polygon fill="red" stroke="red" points="1352.55,-476.52 1346.56,-467.79 1345.8,-478.36 1352.55,-476.52"/>
</g>
<!-- bf&#45;&gt;pf -->
<g id="edge78" class="edge">
<title>bf&#45;&gt;pf</title>
<path fill="none" stroke="red" d="M1202.6,-72.41C1199.49,-64.34 1195.67,-54.43 1192.17,-45.35"/>
<polygon fill="red" stroke="red" points="1195.4,-44.03 1188.54,-35.96 1188.87,-46.55 1195.4,-44.03"/>
</g>
<!-- bf&#45;&gt;qx -->
<g id="edge77" class="edge">
<title>bf&#45;&gt;qx</title>
<path fill="none" stroke="red" d="M1205.64,-107.97C1200.69,-134.52 1192,-187.56 1192,-233 1192,-595 1192,-595 1192,-595 1192,-649.85 1244.36,-695.58 1278.11,-719.35"/>
<polygon fill="red" stroke="red" points="1276.43,-722.44 1286.66,-725.19 1280.38,-716.66 1276.43,-722.44"/>
</g>
<!-- vl&#45;&gt;gf -->
<g id="edge69" class="edge">
<title>vl&#45;&gt;gf</title>
<path fill="none" stroke="red" d="M173.94,-827.79C180.12,-846.77 192.12,-877.92 210,-900 221.59,-914.32 237.88,-926.84 251.93,-936.11"/>
<polygon fill="red" stroke="red" points="250.45,-939.32 260.77,-941.72 254.2,-933.41 250.45,-939.32"/>
</g>
<!-- vl&#45;&gt;fj -->
<g id="edge70" class="edge">
<title>vl&#45;&gt;fj</title>
<path fill="none" stroke="red" d="M164.4,-792.05C162.25,-784.14 159.65,-774.54 157.24,-765.69"/>
<polygon fill="red" stroke="red" points="160.55,-764.52 154.56,-755.79 153.8,-766.36 160.55,-764.52"/>
</g>
<!-- ch&#45;&gt;db -->
<g id="edge38" class="edge">
<title>ch&#45;&gt;db</title>
<path fill="none" stroke="red" d="M777.45,-864.15C774.85,-839.92 774.56,-794.96 776.56,-766.05"/>
<polygon fill="red" stroke="red" points="780.07,-766.09 777.45,-755.82 773.1,-765.49 780.07,-766.09"/>
</g>
<!-- mc -->
<g id="node40" class="node">
<title>mc</title>
<ellipse fill="white" stroke="red" cx="718" cy="-810" rx="27" ry="18"/>
<text text-anchor="middle" x="718" y="-806.3" font-family="Times,serif" font-size="14.00">mc</text>
</g>
<!-- ch&#45;&gt;mc -->
<g id="edge39" class="edge">
<title>ch&#45;&gt;mc</title>
<path fill="none" stroke="red" d="M768.43,-866.15C759.69,-856.6 748.17,-843.99 738.34,-833.25"/>
<polygon fill="red" stroke="red" points="740.88,-830.84 731.55,-825.82 735.72,-835.57 740.88,-830.84"/>
</g>
<!-- mc&#45;&gt;db -->
<g id="edge74" class="edge">
<title>mc&#45;&gt;db</title>
<path fill="none" stroke="red" d="M731.57,-794.15C740.31,-784.6 751.83,-771.99 761.66,-761.25"/>
<polygon fill="red" stroke="red" points="764.28,-763.57 768.45,-753.82 759.12,-758.84 764.28,-763.57"/>
</g>
<!-- mc&#45;&gt;ds -->
<g id="edge73" class="edge">
<title>mc&#45;&gt;ds</title>
<path fill="none" stroke="red" d="M701.35,-795.64C670.12,-770.59 602.6,-716.42 565.93,-687"/>
<polygon fill="red" stroke="red" points="567.73,-683.95 557.74,-680.43 563.35,-689.41 567.73,-683.95"/>
</g>
<!-- cr&#45;&gt;vc -->
<g id="edge41" class="edge">
<title>cr&#45;&gt;vc</title>
<path fill="none" stroke="red" d="M1640.49,-363.83C1654.52,-353.27 1674.42,-338.3 1690.26,-326.37"/>
<polygon fill="red" stroke="red" points="1692.7,-328.92 1698.59,-320.11 1688.49,-323.32 1692.7,-328.92"/>
</g>
<!-- cr&#45;&gt;gx -->
<g id="edge40" class="edge">
<title>cr&#45;&gt;gx</title>
<path fill="none" stroke="red" d="M1623,-359.87C1623,-335.67 1623,-291.21 1623,-262.39"/>
<polygon fill="red" stroke="red" points="1626.5,-262.19 1623,-252.19 1619.5,-262.19 1626.5,-262.19"/>
</g>
<!-- ds&#45;&gt;cc -->
<g id="edge43" class="edge">
<title>ds&#45;&gt;cc</title>
<path fill="none" stroke="red" d="M562.52,-654.82C587.73,-642.9 629.68,-623.06 658.3,-609.52"/>
<polygon fill="red" stroke="red" points="659.91,-612.63 667.45,-605.19 656.92,-606.3 659.91,-612.63"/>
</g>
<!-- nn -->
<g id="node55" class="node">
<title>nn</title>
<ellipse fill="pink" stroke="red" cx="727" cy="-522" rx="27" ry="18"/>
<text text-anchor="middle" x="727" y="-518.3" font-family="Times,serif" font-size="14.00">nn</text>
</g>
<!-- cc&#45;&gt;nn -->
<g id="edge94" class="edge">
<title>cc&#45;&gt;nn</title>
<path fill="none" stroke="red" d="M697.81,-576.76C702.42,-568.28 708.16,-557.71 713.32,-548.2"/>
<polygon fill="red" stroke="red" points="716.54,-549.61 718.23,-539.15 710.39,-546.27 716.54,-549.61"/>
</g>
<!-- bp -->
<g id="node46" class="node">
<title>bp</title>
<ellipse fill="white" stroke="red" cx="860" cy="-234" rx="27" ry="18"/>
<text text-anchor="middle" x="860" y="-230.3" font-family="Times,serif" font-size="14.00">bp</text>
</g>
<!-- sf&#45;&gt;bp -->
<g id="edge76" class="edge">
<title>sf&#45;&gt;bp</title>
<path fill="none" stroke="red" d="M845.6,-288.05C847.75,-280.14 850.35,-270.54 852.76,-261.69"/>
<polygon fill="red" stroke="red" points="856.2,-262.36 855.44,-251.79 849.45,-260.52 856.2,-262.36"/>
</g>
<!-- xf&#45;&gt;th -->
<g id="edge75" class="edge">
<title>xf&#45;&gt;th</title>
<path fill="none" stroke="blue" d="M990.78,-575.97C993.4,-549.34 998,-496.21 998,-451 998,-451 998,-451 998,-305 998,-262.97 1006.25,-250.69 1030,-216 1039.12,-202.68 1052.37,-190.63 1064.19,-181.39"/>
<polygon fill="blue" stroke="blue" points="1066.56,-183.99 1072.46,-175.19 1062.36,-178.38 1066.56,-183.99"/>
</g>
<!-- bp&#45;&gt;jz -->
<g id="edge51" class="edge">
<title>bp&#45;&gt;jz</title>
<path fill="none" stroke="red" d="M860,-215.7C860,-207.98 860,-198.71 860,-190.11"/>
<polygon fill="red" stroke="red" points="863.5,-190.1 860,-180.1 856.5,-190.1 863.5,-190.1"/>
</g>
<!-- bp&#45;&gt;db -->
<g id="edge50" class="edge">
<title>bp&#45;&gt;db</title>
<path fill="none" stroke="red" d="M867.11,-251.7C877.6,-277.89 896,-330.46 896,-377 896,-595 896,-595 896,-595 896,-649.85 843.64,-695.58 809.89,-719.35"/>
<polygon fill="red" stroke="red" points="807.62,-716.66 801.34,-725.19 811.57,-722.44 807.62,-716.66"/>
</g>
<!-- cv&#45;&gt;xz -->
<g id="edge100" class="edge">
<title>cv&#45;&gt;xz</title>
<path fill="none" stroke="red" d="M1342,-431.7C1342,-423.98 1342,-414.71 1342,-406.11"/>
<polygon fill="red" stroke="red" points="1345.5,-406.1 1342,-396.1 1338.5,-406.1 1345.5,-406.1"/>
</g>
<!-- bx&#45;&gt;qx -->
<g id="edge98" class="edge">
<title>bx&#45;&gt;qx</title>
<path fill="none" stroke="red" d="M1301.45,-864.15C1298.85,-839.92 1298.56,-794.96 1300.56,-766.05"/>
<polygon fill="red" stroke="red" points="1304.07,-766.09 1301.45,-755.82 1297.1,-765.49 1304.07,-766.09"/>
</g>
<!-- bx&#45;&gt;qp -->
<g id="edge99" class="edge">
<title>bx&#45;&gt;qp</title>
<path fill="none" stroke="red" d="M1319.57,-866.15C1328.31,-856.6 1339.83,-843.99 1349.66,-833.25"/>
<polygon fill="red" stroke="red" points="1352.28,-835.57 1356.45,-825.82 1347.12,-830.84 1352.28,-835.57"/>
</g>
<!-- jd -->
<g id="node54" class="node">
<title>jd</title>
<ellipse fill="white" stroke="red" cx="1304" cy="-306" rx="27" ry="18"/>
<text text-anchor="middle" x="1304" y="-302.3" font-family="Times,serif" font-size="14.00">jd</text>
</g>
<!-- xz&#45;&gt;jd -->
<g id="edge88" class="edge">
<title>xz&#45;&gt;jd</title>
<path fill="none" stroke="red" d="M1333.19,-360.76C1328.58,-352.28 1322.84,-341.71 1317.68,-332.2"/>
<polygon fill="red" stroke="red" points="1320.61,-330.27 1312.77,-323.15 1314.46,-333.61 1320.61,-330.27"/>
</g>
<!-- zl&#45;&gt;th -->
<g id="edge109" class="edge">
<title>zl&#45;&gt;th</title>
<path fill="none" stroke="blue" d="M1097.42,-503.97C1095.09,-477.33 1091,-424.19 1091,-379 1091,-379 1091,-379 1091,-305 1091,-265 1091,-218.65 1091,-190.08"/>
<polygon fill="blue" stroke="blue" points="1094.5,-190.05 1091,-180.05 1087.5,-190.05 1094.5,-190.05"/>
</g>
<!-- th&#45;&gt;rx -->
<g id="edge58" class="edge">
<title>th&#45;&gt;rx</title>
<path fill="none" stroke="blue" d="M1091,-143.7C1091,-135.98 1091,-126.71 1091,-118.11"/>
<polygon fill="blue" stroke="blue" points="1094.5,-118.1 1091,-108.1 1087.5,-118.1 1094.5,-118.1"/>
</g>
<!-- broadcast -->
<g id="node52" class="node">
<title>broadcast</title>
<ellipse fill="white" stroke="green" cx="1044" cy="-954" rx="56.59" ry="18"/>
<text text-anchor="middle" x="1044" y="-950.3" font-family="Times,serif" font-size="14.00">broadcast</text>
</g>
<!-- broadcast&#45;&gt;sr -->
<g id="edge59" class="edge">
<title>broadcast&#45;&gt;sr</title>
<path fill="none" stroke="green" d="M991.28,-947.33C863.41,-933.58 539.27,-898.73 429.78,-886.95"/>
<polygon fill="green" stroke="green" points="429.89,-883.45 419.57,-885.86 429.14,-890.41 429.89,-883.45"/>
</g>
<!-- broadcast&#45;&gt;hd -->
<g id="edge61" class="edge">
<title>broadcast&#45;&gt;hd</title>
<path fill="none" stroke="green" d="M1097.8,-948.3C1249.79,-935.02 1679.71,-897.44 1808.25,-886.21"/>
<polygon fill="green" stroke="green" points="1808.71,-889.68 1818.37,-885.33 1808.1,-882.71 1808.71,-889.68"/>
</g>
<!-- broadcast&#45;&gt;ch -->
<g id="edge60" class="edge">
<title>broadcast&#45;&gt;ch</title>
<path fill="none" stroke="green" d="M1002.2,-941.83C950.78,-928.09 864.45,-905.03 816.59,-892.24"/>
<polygon fill="green" stroke="green" points="817.27,-888.8 806.7,-889.6 815.46,-895.56 817.27,-888.8"/>
</g>
<!-- broadcast&#45;&gt;bx -->
<g id="edge62" class="edge">
<title>broadcast&#45;&gt;bx</title>
<path fill="none" stroke="green" d="M1085.8,-941.83C1137.22,-928.09 1223.55,-905.03 1271.41,-892.24"/>
<polygon fill="green" stroke="green" points="1272.54,-895.56 1281.3,-889.6 1270.73,-888.8 1272.54,-895.56"/>
</g>
<!-- tj&#45;&gt;gf -->
<g id="edge65" class="edge">
<title>tj&#45;&gt;gf</title>
<path fill="none" stroke="red" d="M315.53,-323.84C323.69,-350.21 338,-403.02 338,-449 338,-811 338,-811 338,-811 338,-854.91 314.23,-901.33 297.39,-928.7"/>
<polygon fill="red" stroke="red" points="294.39,-926.9 291.99,-937.22 300.3,-930.65 294.39,-926.9"/>
</g>
<!-- tj&#45;&gt;lc -->
<g id="edge64" class="edge">
<title>tj&#45;&gt;lc</title>
<path fill="none" stroke="red" d="M310,-287.7C310,-279.98 310,-270.71 310,-262.11"/>
<polygon fill="red" stroke="red" points="313.5,-262.1 310,-252.1 306.5,-262.1 313.5,-262.1"/>
</g>
<!-- jd&#45;&gt;qx -->
<g id="edge67" class="edge">
<title>jd&#45;&gt;qx</title>
<path fill="none" stroke="red" d="M1296.89,-323.7C1286.4,-349.89 1268,-402.46 1268,-449 1268,-595 1268,-595 1268,-595 1268,-636.59 1283.4,-682.78 1294.6,-710.86"/>
<polygon fill="red" stroke="red" points="1291.45,-712.42 1298.49,-720.34 1297.93,-709.76 1291.45,-712.42"/>
</g>
<!-- jd&#45;&gt;vm -->
<g id="edge68" class="edge">
<title>jd&#45;&gt;vm</title>
<path fill="none" stroke="red" d="M1304,-287.7C1304,-279.98 1304,-270.71 1304,-262.11"/>
<polygon fill="red" stroke="red" points="1307.5,-262.1 1304,-252.1 1300.5,-262.1 1307.5,-262.1"/>
</g>
<!-- nn&#45;&gt;db -->
<g id="edge72" class="edge">
<title>nn&#45;&gt;db</title>
<path fill="none" stroke="red" d="M731.26,-539.93C738.66,-569.29 754.38,-631.51 768,-684 770.18,-692.42 772.59,-701.58 774.79,-709.89"/>
<polygon fill="red" stroke="red" points="771.48,-711.05 777.42,-719.82 778.24,-709.26 771.48,-711.05"/>
</g>
<!-- nn&#45;&gt;ff -->
<g id="edge71" class="edge">
<title>nn&#45;&gt;ff</title>
<path fill="none" stroke="red" d="M735.81,-504.76C740.42,-496.28 746.16,-485.71 751.32,-476.2"/>
<polygon fill="red" stroke="red" points="754.54,-477.61 756.23,-467.15 748.39,-474.27 754.54,-477.61"/>
</g>
<!-- xm&#45;&gt;db -->
<g id="edge85" class="edge">
<title>xm&#45;&gt;db</title>
<path fill="none" stroke="red" d="M618.47,-35.84C610.31,-62.21 596,-115.02 596,-161 596,-595 596,-595 596,-595 596,-641.04 613.98,-654.11 649,-684 677.12,-708 717.46,-722 746.33,-729.52"/>
<polygon fill="red" stroke="red" points="745.85,-733.01 756.4,-732.01 747.53,-726.21 745.85,-733.01"/>
</g>
<!-- zd&#45;&gt;gf -->
<g id="edge93" class="edge">
<title>zd&#45;&gt;gf</title>
<path fill="none" stroke="red" d="M136.25,-681.93C128.04,-691.9 118.38,-705.75 114,-720 90.09,-797.74 92.22,-839.88 147,-900 172.4,-927.87 214.34,-941.3 244.54,-947.62"/>
<polygon fill="red" stroke="red" points="244.21,-951.12 254.69,-949.58 245.53,-944.25 244.21,-951.12"/>
</g>
<!-- zd&#45;&gt;ln -->
<g id="edge92" class="edge">
<title>zd&#45;&gt;ln</title>
<path fill="none" stroke="red" d="M162.37,-649.81C169.91,-640.55 179.7,-628.52 188.19,-618.09"/>
<polygon fill="red" stroke="red" points="191.06,-620.12 194.66,-610.16 185.63,-615.7 191.06,-620.12"/>
</g>
<!-- sb&#45;&gt;ks -->
<g id="edge89" class="edge">
<title>sb&#45;&gt;ks</title>
<path fill="none" stroke="red" d="M1718,-575.7C1718,-567.98 1718,-558.71 1718,-550.11"/>
<polygon fill="red" stroke="red" points="1721.5,-550.1 1718,-540.1 1714.5,-550.1 1721.5,-550.1"/>
</g>
<!-- sb&#45;&gt;vc -->
<g id="edge90" class="edge">
<title>sb&#45;&gt;vc</title>
<path fill="none" stroke="red" d="M1731.75,-578.07C1739.96,-568.1 1749.62,-554.25 1754,-540 1764.51,-505.82 1776.55,-464.18 1746,-360 1743.04,-349.91 1737.85,-339.66 1732.61,-330.9"/>
<polygon fill="red" stroke="red" points="1735.53,-328.96 1727.23,-322.38 1729.61,-332.7 1735.53,-328.96"/>
</g>
<!-- qk&#45;&gt;vc -->
<g id="edge91" class="edge">
<title>qk&#45;&gt;vc</title>
<path fill="none" stroke="red" d="M1729.65,-36.09C1731.68,-46.43 1733.98,-59.91 1735,-72 1741.29,-146.57 1728.66,-234.58 1721.11,-278"/>
<polygon fill="red" stroke="red" points="1717.63,-277.58 1719.31,-288.04 1724.52,-278.81 1717.63,-277.58"/>
</g>
</g>
</svg>
